<svg xmlns="http://www.w3.org/2000/svg" width="1200" height="800" viewBox="-37.05846 -6.901925 321.17332 41.41155"><defs><clipPath id="a" clipPathUnits="userSpaceOnUse"><path d="M0 513.92h236.747v81.355H0z"/></clipPath></defs><g clip-path="url(#a)" transform="matrix(1.25 0 0 -1.25 -21.357 723.1229)"><path d="M21.5586 576.8926h-4.473v1.313h10.499v-1.313h-4.473v-16.205h-1.553zm6.9493 1.3125h1.458v-6.41h.049c.367 1.311 1.626 2.089 3.159 2.089 1.969 0 3.305-1.021 3.305-3.449v-9.748h-1.457v9.334c0 1.774-.73 2.649-2.211 2.649-1.704 0-2.845-1.312-2.845-3.308v-8.675h-1.458zm16.4645-9.9108c-.05 3.209-.948 4.376-2.749 4.376-1.796 0-2.695-1.167-2.744-4.376zm1.433-3.327c-.219-2.747-1.726-4.573-4.154-4.573-2.723 0-4.326 1.897-4.326 6.762 0 4.468 1.603 6.729 4.446 6.729 2.866 0 4.155-1.97 4.155-6.271v-.536h-7.047v-.605c0-3.721 1.311-4.863 2.744-4.863 1.533 0 2.482 1.093 2.724 3.357zm12.3568 3.912c0 1.92-.438 2.721-1.485 2.721-1.311 0-1.483-1.654-1.483-4.352 0-2.966.172-4.324 1.483-4.324 1.168 0 1.438.801 1.485 3.111h3.644c-.025-4.058-1.628-5.69-5.199-5.69-4.959 0-5.348 3.478-5.348 7.389 0 3.695 1.069 6.444 5.348 6.444 4.131 0 5.199-2.163 5.199-5.299zm9.9508 2.7213c-1.166 0-1.508-1.142-1.508-4.327 0-3.209.342-4.35 1.508-4.35 1.213 0 1.458 1.091 1.458 4.325 0 3.259-.245 4.352-1.458 4.352m-5.444-4.376c0 3.938.873 6.954 5.42 6.954 4.811 0 5.418-2.942 5.418-6.88 0-3.938-.875-6.953-5.418-6.953-4.814 0-5.42 2.943-5.42 6.879m21.4678 4.376c-1.165 0-1.506-1.142-1.506-4.327 0-3.209.341-4.35 1.506-4.35 1.218 0 1.459 1.091 1.459 4.325 0 3.259-.241 4.352-1.459 4.352m-5.442-4.376c0 3.938.874 6.954 5.419 6.954 4.813 0 5.421-2.942 5.421-6.88 0-3.938-.876-6.953-5.421-6.953-4.813 0-5.419 2.943-5.419 6.879m16.9227-4.0115c1.432 0 1.506 1.582 1.506 3.964 0 2.113-.048 4.132-1.532 4.132-1.165 0-1.409-1.409-1.409-3.963 0-2.33.099-4.133 1.435-4.133m-5.297 10.623h3.788v-1.606h.048c.295.902 1.097 1.948 2.845 1.948 2.65 0 4.061-1.897 4.061-6.807 0-4.083-.583-7.026-3.816-7.026-1.096 0-2.285.367-2.941 1.775h-.05v-5.708h-3.935zm18.2524-4.9345c0 1.849-.242 2.844-1.335 2.844-1.291 0-1.507-1.069-1.507-2.844zm-2.842-2.283v-.801c0-2.045.292-3.04 1.434-3.04 1.02 0 1.336.754 1.433 2.408h3.647c-.072-3.26-1.849-4.84-5.106-4.84-4.956 0-5.347 3.478-5.347 7.389 0 3.694 1.07 6.444 5.347 6.444 4.888 0 5.226-3.09 5.226-7.56zm7.4188 7.2175h3.793v-1.847h.048c.511 1.166 1.506 2.189 3.16 2.189.191 0 .385 0 .633-.049v-3.694c-.391.072-.707.097-1.097.097-1.579 0-2.598-.66-2.598-2.383v-7.462h-3.939zm20.3268-2.7227h-1.626v2.723h1.626v4.38h3.938v-4.38h1.822v-2.723h-1.822v-6.634c0-.923.342-1.215 1.261-1.215.171 0 .389.024.561.049v-2.626c-.756-.098-1.505-.148-2.258-.148-2.724 0-3.502.49-3.502 3.549zm6.8265 2.7226h3.938v-13.149h-3.938zm0 4.397h3.938v-3.009h-3.938zm4.7614-4.3969h4.083l1.53-9.699h.049l1.557 9.699h3.938l-3.259-13.149h-4.664zm17.6581-4.9345c0 1.849-.242 2.844-1.336 2.844-1.286 0-1.504-1.069-1.504-2.844zm-2.84-2.283v-.801c0-2.045.289-3.04 1.431-3.04 1.024 0 1.335.754 1.434 2.408h3.645c-.072-3.26-1.846-4.84-5.103-4.84-4.96 0-5.345 3.478-5.345 7.389 0 3.694 1.067 6.444 5.345 6.444 4.885 0 5.226-3.09 5.226-7.56zm-85.7985-.9206h3.936v3.209h-3.936zm53.3859-.8275c0-1.314-.755-1.801-1.579-1.801-.73 0-1.143.631-1.143 1.677 0 .73.195 1.143.607 1.46.364.292.899.314 2.139.971 0-.535-.024-1.215-.024-2.307m3.67-1.339v6.757c0 2.771-1.434 3.89-4.665 3.89-1.63 0-2.748-.224-3.671-.852-.806-.55-1.317-1.456-1.45-2.872h3.526c.131.734.508 1.146 1.374 1.146.874 0 1.24-.512 1.24-1.312 0-.999-.218-1.193-1.409-1.508-1.096-.291-2.551-.535-3.526-1.069-.971-.534-1.604-1.822-1.604-3.355 0-2.843 1.29-4.011 3.502-4.011 1.311 0 2.551.684 3.086 1.848h.047c.024-.509.073-1.044.22-1.506h3.791c-.461.583-.461 1.847-.461 2.844" fill="#243d72"/><path d="M177.0922 561.6353c1.497 0 2.892.774 2.892 5.689 0 4.888-1.395 5.662-2.892 5.662-1.521 0-2.893-.774-2.893-5.662 0-4.915 1.372-5.689 2.893-5.689m-4.391 16.863h1.498v-6.561h.049c.324 1.398 1.448 2.297 3.093 2.297 2.918 0 4.241-2.347 4.241-6.91 0-4.59-1.323-6.937-4.241-6.937-1.571 0-2.843.974-3.242 2.496h-.05v-2.196h-1.348zm17.285-10.327h-.049c-.151-.448-.997-.723-1.596-.874l-1.248-.323c-1.496-.399-2.269-1.172-2.269-2.745 0-1.544.798-2.594 2.094-2.594 1.822 0 3.068 1.373 3.068 3.743zm-6.334 1.822c0 2.717 1.296 4.241 4.091 4.241 2.744 0 3.741-1.425 3.741-3.519v-7.832c0-.748.249-1.099.772-1.099h.426v-1.097c-.275-.101-.5-.148-.699-.148-1.172 0-1.922.274-1.922 1.645v.449h-.049c-.597-1.746-1.945-2.246-3.418-2.246-2.321 0-3.367 1.448-3.367 3.743 0 1.746.8 3.142 2.669 3.667l2.819.798c1.047.301 1.271.548 1.271 2.095 0 1.696-.946 2.295-2.294 2.295-1.771 0-2.544-1.073-2.544-2.992zm10.8994 3.9406h1.348v-1.846h.05c.748 1.472 2.046 2.146 3.393 2.146 2.021 0 3.392-1.048 3.392-3.544v-10.003h-1.497v9.579c0 1.822-.749 2.72-2.271 2.72-1.745 0-2.918-1.348-2.918-3.392v-8.907h-1.497zm10.9251 4.5644h1.498v-11.149h.049l5.138 6.585h1.846l-3.992-4.914 4.715-8.333h-1.844l-3.942 6.984-1.97-2.344v-4.64h-1.498z" fill="#0d9ad2"/></g></svg>